<svg version="1.2" xmlns="http://www.w3.org/2000/svg" viewBox="0 0 209 209" width="209" height="209">
	<title>Pasta 1</title>
	<style>
		.s0 { fill: #ffc107 } 
		.s1 { fill: #000000 } 
	</style>
	<g id="Pasta 1">
		<circle id="&lt;Path&gt;" class="s0" cx="104.4" cy="115.4" r="41.5"/>
		<g id="&lt;Group&gt;">
			<path id="&lt;Compound Path&gt;" fill-rule="evenodd" class="s0" d="m104.4 208.9c-57.7 0-104.4-46.7-104.4-104.5 0-57.7 46.7-104.4 104.4-104.4 57.8 0 104.5 46.7 104.5 104.4 0 57.8-46.7 104.5-104.5 104.5zm100.5-104.5c0-55.5-44.9-100.4-100.5-100.4-55.5 0-100.4 44.9-100.4 100.4 0 55.6 44.9 100.5 100.4 100.5 55.6 0 100.5-44.9 100.5-100.5z"/>
		</g>
		<g id="&lt;Group&gt;">
			<g id="&lt;Group&gt;">
				<path id="Path 0" fill-rule="evenodd" class="s1" d="m100.8 36.1q0.8 0 1.5 0.6c0.4 0.4 0.7 0.9 0.7 1.3 0 0.3-0.3 0.9-0.6 1.2-0.4 0.4-1.2 0.8-2.4 1.1-0.9 0.2-2.5 0.7-3.4 1-0.9 0.4-2.4 1.1-3.3 1.7-1 0.5-2.6 1.7-3.6 2.7-1 1-2.4 2.5-3 3.3-0.6 0.8-1.4 2.2-1.8 2.9-0.4 0.8-1 2.2-1.3 3.1-0.3 0.9-0.5 1.8-0.4 1.9 0.1 0.1 0.8 0.2 1.6 0.2 0.9 0 1.7 0.1 2.2 0.4 0.4 0.3 0.9 0.9 1.2 1.4 0.3 0.8 0.4 1.7 0.4 6.9h2.2c1.1 0 3.2-0.1 4.5-0.3 1.3-0.1 3.6-0.4 5-0.7 1.4-0.3 3.6-0.9 4.9-1.3 1.2-0.5 3.2-1.3 4.3-1.8 1.2-0.5 3.1-1.6 4.4-2.3 1.5-0.8 2.6-1.3 3.1-1.3 0.5 0 1.3 0.2 1.8 0.4 0.5 0.3 1.5 1.2 2.3 2.1 0.7 0.9 1.5 1.5 1.6 1.5 0.2-0.1 0.3-0.7 0.3-1.3 0-0.6 0.1-1.5 0.4-1.9 0.2-0.5 0.7-1 1.2-1.3 0.6-0.4 1.3-0.5 2.3-0.5 1.2 0 1.5-0.1 1.5-0.5 0-0.2-0.3-1.1-0.6-2-0.3-0.8-0.8-2.1-1.3-2.9-0.4-0.8-1.4-2.3-2.3-3.5-0.9-1.1-2.5-2.7-3.6-3.5-1-0.9-2.8-2-3.8-2.5-1-0.6-2.6-1.2-3.6-1.5-0.9-0.3-2.1-0.6-2.8-0.7-0.7-0.1-1.3-0.4-1.7-0.8-0.5-0.6-0.6-0.9-0.5-1.5 0.1-0.4 0.4-0.9 0.7-1.2 0.4-0.3 1-0.5 1.5-0.4 0.5 0 2.1 0.3 3.5 0.8 1.4 0.4 3.5 1.2 4.6 1.8 1.1 0.5 2.8 1.6 3.7 2.2 0.9 0.7 2.5 2.2 3.6 3.3 1.1 1.1 2.5 2.8 3.1 3.9 0.7 1.1 1.6 2.9 2.1 4.1 0.5 1.2 1.1 3.2 1.4 4.4 0.2 1.2 0.4 2.3 0.4 2.4 0.1 0.1 0.5 0.3 1.1 0.5 0.5 0.1 1.6 0.5 2.4 0.9 0.8 0.4 1.9 1.2 2.5 1.7 0.7 0.6 1.6 1.6 2.1 2.4 0.5 0.8 1.1 2.2 1.4 3.1 0.3 1.2 0.4 2.2 0.4 3.9-0.1 2-0.3 2.6-1 4.1-0.5 1.1-1.4 2.4-2.2 3.3-0.7 0.7-2 1.7-2.9 2.2-0.8 0.4-1.9 0.9-3.6 1.3v3c0 2.3-0.1 3.2-0.5 4.3-0.3 0.7-0.9 1.8-1.3 2.3-0.5 0.6-1.3 1.4-1.8 1.8-0.5 0.4-1.7 0.9-2.6 1.2-0.9 0.3-2 0.5-2.4 0.5-0.5 0-0.8 0.3-1.5 1.2-0.5 0.7-1.7 2-4.5 4.7l0.1 6.5 13.6 5.3c7.4 2.9 14.3 5.6 15.2 6.1 1.1 0.6 2.5 1.7 4.1 3.4 1.8 1.7 2.7 2.9 3.4 4.2 0.5 1 1.1 2.3 1.3 3 0.3 0.7 0.6 2.1 0.8 3.1 0.3 1.1 0.4 3.3 0.4 5.6 0 3.7 0 3.8-0.6 4.4-0.4 0.4-0.9 0.7-1.4 0.7-0.5 0-1-0.2-1.3-0.5-0.4-0.4-0.5-1.1-0.6-4.9-0.1-2.8-0.3-5.1-0.6-6-0.2-0.9-0.8-2.3-1.3-3.2-0.5-0.9-1.4-2.3-2.1-3.1-0.6-0.8-1.8-1.8-2.5-2.3-0.7-0.5-1.6-1.1-2-1.4-0.4-0.2-4.4-1.7-8.8-3.5-4.4-1.7-8.1-3.1-8.3-3.1-0.1 0-1.8 3.3-3.8 7.3-2 4-3.9 7.5-4.3 7.9-0.4 0.4-1.1 0.9-1.6 1-0.5 0.1-1.2 0.1-1.7 0-0.4-0.1-1.1-0.4-1.6-0.7-0.4-0.3-0.8-0.6-0.9-0.6 0 0-0.5 0.6-1 1.4-0.5 0.8-0.9 1.6-0.9 1.9 0 0.2 1.1 6.9 2.4 14.8 1.3 7.9 2.4 14.4 2.4 14.5 0 0.1 4.2 0.2 18.7 0.2v-23.6l0.7-0.6c0.3-0.4 0.9-0.7 1.2-0.7 0.4 0 1 0.3 2 1.3v23.6h6.9c5.9 0 6.9-0.1 7-0.4 0.1-0.2 0.2-3.2 0.2-6.6 0-5.1 0-6.3 0.3-6.8 0.3-0.4 0.7-0.5 1.5-0.5 0.8 0 1.1 0.1 1.5 0.7 0.5 0.6 0.5 0.9 0.5 7.4-0.1 6.4-0.2 6.9-0.6 7.7-0.3 0.5-1 1.2-2.6 2.3h-96.6l-1-0.7c-0.6-0.4-1.3-1.2-2.2-3v-14.2c0-11.3 0.1-14.6 0.4-16.1 0.2-1.1 0.5-2.5 0.8-3.2 0.2-0.7 0.8-2.1 1.3-3.1 0.7-1.3 1.6-2.5 3.4-4.2 1.6-1.7 3-2.8 4.1-3.4 0.9-0.5 7.8-3.2 28.8-11.4l0.2-6.5-1.3-1.1c-0.6-0.5-1.7-1.7-2.4-2.4-0.7-0.8-1.6-2.2-2.1-3-0.5-0.9-1.1-2.4-1.5-3.4-0.4-1.1-0.8-3-1.3-6.8h-1.6c-0.9 0-1.9-0.1-2.3-0.3-0.4-0.2-1-0.7-1.4-1.1-0.4-0.5-1.1-0.9-1.8-1.1-0.6-0.2-1.6-0.6-2.3-0.9-0.6-0.3-1.7-1.1-2.4-1.6-0.7-0.6-1.7-1.7-2.2-2.5-0.5-0.9-1.1-2.2-1.4-3-0.2-0.8-0.4-2.1-0.4-3.3 0-1 0.1-2.5 0.3-3.2 0.2-0.7 0.7-1.8 1-2.4 0.3-0.7 1.3-1.9 2.1-2.7 0.9-0.9 2.2-1.9 3-2.2 0.8-0.4 1.9-0.8 2.4-0.9 0.5-0.1 1-0.1 1-0.2 0 0 0.2-1.1 0.4-2.4 0.3-1.2 0.9-3.2 1.3-4.3 0.4-1.1 1.3-2.9 1.9-4 0.7-1 1.9-2.8 2.8-3.8 0.9-1 2.6-2.6 3.8-3.5 1.2-0.9 3.1-2.1 4.2-2.7 1.2-0.5 2.9-1.2 3.9-1.5 1-0.3 2.1-0.6 2.4-0.8 0.4-0.1 1-0.2 1.4-0.2zm-18.3 44.8h2.3v-20h-2.3zm44.3 0h2.3v-20h-2.3zm-10.9-18.3c-0.5 0.4-2.1 1.2-3.4 1.9-1.4 0.7-3.6 1.7-5 2.2-1.4 0.5-3.7 1.2-5 1.6-1.4 0.3-3.8 0.8-5.3 1-1.6 0.2-4.2 0.4-5.7 0.4h-2.9c0.2 18 0.2 18 0.9 20.1 0.3 1.1 1.2 2.9 1.9 3.9 0.7 1.1 2 2.6 2.9 3.4 0.9 0.9 2.4 1.9 3.3 2.4 0.9 0.5 2.6 1.1 3.7 1.4 1.4 0.4 2.9 0.6 4.5 0.6 1.4 0 3.2-0.2 4.2-0.4 1-0.3 2.5-0.8 3.4-1.3 0.8-0.4 1.9-1 2.3-1.3 0.4-0.2 1.2-1 1.8-1.5 0.6-0.6 1-1.2 1-1.3-0.1-0.1-1.5-0.2-3.1-0.2l-3.1 0.1c-1 1.5-1.8 2.2-2.4 2.5-0.8 0.4-1.5 0.5-3.5 0.5-1.3 0-2.7-0.1-3.1-0.3-0.4-0.1-1-0.5-1.4-0.9-0.4-0.4-1-1.2-1.2-1.7-0.3-0.6-0.5-1.5-0.5-2.1 0-0.5 0.2-1.5 0.4-2 0.3-0.6 0.8-1.4 1.3-1.7 0.4-0.4 1.2-0.8 1.7-1 0.7-0.2 1.9-0.3 3.4-0.3 2 0.1 2.4 0.2 3.4 0.9 0.6 0.3 1.2 1 1.4 1.4l0.4 0.8 9.3-0.1c0.7-2 1-3.6 1.2-4.8 0.2-1.2 0.3-5.8 0.3-10.4v-8.2l-6-6.2zm-40.6 2.3c-0.7 0.6-1.4 1.5-1.9 2.5-0.5 1.1-0.7 2-0.8 3 0 0.8 0.1 1.8 0.2 2.3 0.1 0.5 0.4 1.2 0.6 1.6 0.1 0.4 0.8 1.2 1.4 1.9 0.6 0.7 1.5 1.4 2.1 1.7 0.6 0.2 1.2 0.4 1.4 0.4 0.2 0 0.3-1.6 0.3-7.5 0-4.2-0.1-7.6-0.2-7.6-0.1 0-0.6 0.2-1.1 0.4-0.5 0.3-1.4 0.8-2 1.3zm57.6 5.9c0 5.9 0.1 7.5 0.3 7.5 0.2 0 0.8-0.2 1.5-0.5 0.6-0.4 1.6-1.2 2.2-1.9 0.6-0.7 1.3-1.8 1.5-2.4 0.2-0.7 0.4-1.8 0.4-2.6 0-0.8-0.1-1.8-0.3-2.3-0.1-0.5-0.6-1.4-1-2.1-0.4-0.7-1.3-1.6-2.1-2.1-0.7-0.5-1.6-0.9-1.9-1l-0.6-0.2zm-6.2 15.7c-0.1 1-0.4 2.4-0.6 3.1-0.2 0.8-0.4 1.5-0.4 1.6 0 0.1 0.4 0.1 0.7-0.1 0.4-0.2 1-0.7 1.3-1 0.3-0.3 0.7-1 1-1.4 0.2-0.5 0.4-1.5 0.4-2.4v-1.5h-2.3zm-22.7 7.2c0 0.2 0.2 0.5 0.3 0.7 0.2 0.2 1.1 0.3 2.2 0.3 1.6 0 1.9 0 2.1-0.5 0.2-0.3 0.3-0.6 0.3-0.7 0-0.2-0.2-0.5-0.4-0.7-0.2-0.2-0.9-0.4-2-0.4-1.2 0-1.8 0.2-2.1 0.4-0.2 0.3-0.4 0.6-0.4 0.9zm-6.9 14.9c6.6 8.1 8.6 10.5 8.7 10.5 0.1 0 2.1-2.4 4.4-5.3l4.3-5.2c0-4.3 0-4.9-0.3-4.8-0.2 0.1-1.1 0.3-2.1 0.6-1 0.4-2.7 0.7-3.8 0.8-1.2 0.1-3.1 0.1-4.4 0-1.3-0.1-3.1-0.4-4.1-0.7-1-0.3-2-0.6-2.2-0.7-0.4-0.1-0.4 0.2-0.4 2.3zm-9 5.4c-0.5 0.2-0.5 0.4 2.9 7.2l3.5 6.9c4.7-3.3 6.6-4.7 7.2-5.2 1-0.7 1.2-0.9 0.9-1.3-0.2-0.2-2-2.5-4.1-5.1-2.2-2.7-4.1-4.8-4.3-4.8-0.2 0-1.5 0.5-2.9 1-1.4 0.6-2.8 1.2-3.2 1.3zm20.7 7.8c-0.1 0.1 0.9 1 2.5 2.2 1.6 1.1 3.5 2.5 4.3 3l1.4 1.1c5.4-10.7 6.9-13.9 6.8-14-0.1 0-1.6-0.6-3.2-1.2-1.7-0.7-3.2-1.2-3.4-1.2-0.1 0-2.1 2.2-4.3 4.9-2.1 2.7-4 5-4.1 5.2zm-42.2 0.6c-0.4 0.2-1.3 0.8-2 1.3-0.7 0.5-1.8 1.6-2.5 2.3-0.6 0.8-1.6 2.2-2 3.1-0.5 0.9-1.1 2.4-1.4 3.2-0.4 1.4-0.4 3.2-0.5 15.8-0.1 7.8-0.1 14.4 0 14.8l0.2 0.5h13.8v-23.5c1-1 1.6-1.3 1.9-1.3 0.4 0 1 0.3 1.3 0.6l0.6 0.7v23.5h18.7c0.4-2.2 1.5-9 2.8-16.4l2.2-13.4c-1.6-2.3-2-3-2.1-3 0 0-0.4 0.3-0.9 0.6-0.4 0.3-1.1 0.7-1.6 0.8-0.4 0.1-1.1 0.1-1.6-0.1-0.5-0.1-1.2-0.5-1.6-0.9-0.4-0.4-2.3-4-4.3-8-2-4-3.8-7.2-3.9-7.2-0.2 0-4 1.4-8.4 3.1-4.5 1.8-8.4 3.3-8.7 3.5zm34.7 5.6c-0.5 0.3-0.5 0.4 0.5 1.8l1 1.5h5.9c1.6-2.3 2-3 1.9-3 0-0.1-1.1-0.8-2.3-1.7-1.3-0.9-2.4-1.6-2.6-1.6-0.2 0-1.1 0.6-2.1 1.3-1 0.7-2 1.5-2.3 1.7zm-0.3 21.1c-1.2 7.2-2.2 13.4-2.3 13.8l-0.1 0.5h14.3c-0.2-1.5-1.3-7.8-2.5-15l-2.2-13c-4.1-0.1-4.8-0.1-4.9 0.2 0 0.1-1.1 6.2-2.3 13.5z"/>
			</g>
		</g>
	</g>
</svg>