<svg version="1.2" xmlns="http://www.w3.org/2000/svg" viewBox="0 0 500 500" width="500" height="500">
	<title>3556939-ai</title>
	<style>
		.s0 { fill: #ebebeb } 
		.s1 { fill: #f0f0f0 } 
		.s2 { fill: #e0e0e0 } 
		.s3 { fill: #fafafa } 
		.s4 { fill: #f5f5f5 } 
		.s5 { fill: #e6e6e6 } 
		.s6 { fill: #ffffff } 
		.s7 { fill: #407bff } 
		.s8 { fill: #263238 } 
		.s9 { fill: #ffc107 } 
		.s10 { fill: #7f3e3b } 
		.s11 { fill: #630f0f } 
		.s12 { opacity: .2;fill: #000000 } 
		.s13 { opacity: .5;fill: #ffffff } 
		.s14 { opacity: .3;fill: #000000 } 
		.s15 { opacity: .2;fill: #407bff } 
	</style>
	<g id="Background Complete">
		<g id="&lt;Group&gt;">
			<path id="&lt;Path&gt;" class="s0" d="m500 382.6h-500v-0.2h500z"/>
			<path id="&lt;Path&gt;" class="s0" d="m429.7 389.5h-97.6v-0.3h97.6z"/>
			<path id="&lt;Path&gt;" class="s0" d="m289 395h46.7v0.2h-46.7z"/>
			<path id="&lt;Path&gt;" class="s0" d="m449.9 398.7h-19.2v-0.2h19.2z"/>
			<path id="&lt;Path&gt;" class="s0" d="m219 395.4h-92.5v-0.3h92.5z"/>
			<path id="&lt;Path&gt;" class="s0" d="m117.6 395.4h-19.9v-0.3h19.9z"/>
			<path id="&lt;Path&gt;" class="s0" d="m90.7 391.1h-32.9v-0.2h32.9z"/>
			<path id="&lt;Compound Path&gt;" fill-rule="evenodd" class="s0" d="m237 337.8h-193.1c-3.1 0-5.7-2.6-5.7-5.7v-271.4c0-3.2 2.6-5.7 5.7-5.7h193.1c3.2 0 5.7 2.5 5.7 5.7v271.4c0 3.1-2.5 5.7-5.7 5.7zm-193.1-282.6c-3 0-5.4 2.5-5.4 5.5v271.4c0 3 2.4 5.4 5.4 5.4h193.1c3 0 5.5-2.4 5.5-5.4v-271.4c0-3-2.5-5.5-5.5-5.5z"/>
			<path id="&lt;Compound Path&gt;" fill-rule="evenodd" class="s0" d="m453.3 337.8h-193.1c-3.1 0-5.7-2.6-5.7-5.7v-271.4c0-3.2 2.6-5.7 5.7-5.7h193.1c3.2 0 5.7 2.5 5.7 5.7v271.4c0 3.1-2.5 5.7-5.7 5.7zm-193.1-282.6c-3 0-5.4 2.5-5.4 5.5v271.4c0 3 2.4 5.4 5.4 5.4h193.1c3 0 5.5-2.4 5.5-5.4v-271.4c0-3-2.5-5.5-5.5-5.5z"/>
		</g>
		<g id="&lt;Group&gt;">
			<g id="&lt;Group&gt;">
				<path id="&lt;Path&gt;" class="s1" d="m391.1 373.2h-302.1l-18-204.9h302.1z"/>
				<path id="&lt;Path&gt;" class="s2" d="m65.7 174.9l5.3-6.6 18 204.9-5.3 6.5z"/>
				<path id="&lt;Path&gt;" class="s3" d="m93 365.4l-16.6-188.7c-0.1-2 1.4-3.7 3.4-3.7h285.9c1.7 0 3.2 1.3 3.4 3.1l16.6 188.7c0.1 2-1.4 3.7-3.4 3.7h-285.9c-1.7 0-3.2-1.3-3.4-3.1z"/>
				<path id="&lt;Path&gt;" class="s2" d="m128.3 382.4h-45.5l3.2-9.2h45.5z"/>
				<path id="&lt;Path&gt;" class="s4" d="m131.5 373.2h299.2l-3.2 9.2h-299.2z"/>
				<path id="&lt;Path&gt;" class="s2" d="m254.7 373.2h57.4l-0.7 6h-57.3z"/>
			</g>
			<g id="&lt;Group&gt;">
				<path id="&lt;Path&gt;" class="s2" d="m341.6 154.9h72.5c6 39.7-21.8 72.4-61.5 72.4-12.8 0-25.8-3.3-37.7-9.7z"/>
				<path id="&lt;Path&gt;" class="s0" d="m341.6 154.9l38.2-55.6c9.1 6.9 16.9 15.3 22.9 24.9 5.9 9.6 9.8 20.1 11.4 30.7z"/>
				<path id="&lt;Path&gt;" class="s5" d="m341.6 154.9l-10.9-72.5c8.4 0 17 1.5 25.4 4.4 8.4 2.9 16.4 7.1 23.7 12.5z"/>
				<path id="&lt;Path&gt;" class="s1" d="m341.6 154.9l-26.7 62.7c-24.4-12.9-41.8-36.9-45.8-62.7-6-39.8 21.8-72.5 61.6-72.5z"/>
			</g>
			<g id="&lt;Group&gt;">
				<path id="&lt;Path&gt;" class="s0" d="m252.2 284.2h64.2c0.9 5.6 1 11.2 0.4 16.6-0.7 5.5-2 10.7-4.1 15.5z"/>
				<path id="&lt;Path&gt;" class="s2" d="m252.2 284.2l1.6-63.3c15.2 2.6 29.9 10.4 41.4 22 11.4 11.5 19 26.2 21.2 41.3z"/>
				<path id="&lt;Path&gt;" class="s1" d="m252.2 284.2l-57.1 22c-3.7-7.1-6.1-14.5-7.2-22-5.4-35.3 19.3-64.3 54.5-64.3q5.7 0 11.4 1z"/>
				<path id="&lt;Path&gt;" class="s6" d="m252.2 284.2l60.5 32.1c-8.5 19.9-27.9 32.2-50.8 32.2-27 0-53.8-17-66.8-42.3z"/>
			</g>
		</g>
	</g>
	<g id="Shadow">
		<ellipse id="&lt;Path&gt; 297 " class="s4" cx="250" cy="416.2" rx="193.9" ry="11.3"/>
	</g>
	<g id="Setup analytics">
		<g id="&lt;Group&gt;">
			<g id="&lt;Group&gt;">
				<g id="&lt;Group&gt;">
					<path id="&lt;Path&gt;" class="s6" d="m240.6 239.4h-90.1c-5.7 0-10.8-4.7-11.2-10.4l-4.5-55.4c-0.5-5.7 3.8-10.4 9.5-10.4h90.1c5.7 0 10.8 4.7 11.2 10.4l4.5 55.4c0.5 5.7-3.8 10.4-9.5 10.4z"/>
					<path id="&lt;Compound Path&gt;" fill-rule="evenodd" class="s7" d="m240.6 239.8h-90.1c-5.9 0-11.2-4.8-11.7-10.8l-4.5-55.4c-0.2-2.9 0.7-5.6 2.6-7.6 1.9-2.1 4.5-3.2 7.4-3.2h90.1c5.9 0 11.2 4.8 11.7 10.8l4.5 55.4c0.2 2.9-0.7 5.6-2.6 7.6-1.9 2.1-4.5 3.2-7.4 3.2zm-96.3-76.2c-2.6 0-5 1.1-6.8 2.9-1.7 1.9-2.5 4.4-2.3 7.1l4.5 55.4c0.5 5.5 5.3 10 10.8 10h90.1c2.6 0 5-1.1 6.7-2.9 1.8-1.9 2.6-4.4 2.4-7.1l-4.5-55.4c-0.5-5.5-5.3-10-10.8-10z"/>
				</g>
				<g id="&lt;Group&gt;">
					<path id="&lt;Path&gt;" class="s2" d="m216.1 223.2c-3.5 3.9-8.1 6.6-13.2 8l-1.5-4.2c11.1-3.1 18.6-13.4 17.6-25.7-0.6-7.3-4.1-14-9.3-18.8l2.9-3.1c13 12 14.6 31.8 3.5 43.8z"/>
					<path id="&lt;Path&gt;" class="s8" d="m212.6 179.4l-2.9 3.1c-5.2-4.8-12.1-7.8-19.4-7.8-7.4 0-13.8 3-18.2 7.8l-3.4-3.1c5.4-5.8 13-9.1 21.2-9.1 8.2 0 16.4 3.3 22.7 9.1z"/>
					<path id="&lt;Path&gt;" class="s9" d="m202.9 231.2c-10.4 2.9-22.1-0.2-30.6-8-13-12-14.6-31.8-3.6-43.8l3.4 3.1c-4.4 4.8-6.8 11.5-6.2 18.8 1.2 14.7 14 26.6 28.7 26.6 2.4 0 4.7-0.4 6.8-0.9z"/>
				</g>
			</g>
			<g id="&lt;Group&gt;">
				<path id="&lt;Path&gt;" class="s7" d="m117.9 74.6h-7.2v-0.9h7.2z"/>
				<path id="&lt;Path&gt;" class="s7" d="m103.7 74.6h-16.5v-0.9h16.5z"/>
				<g id="&lt;Group&gt;">
					<path id="&lt;Path&gt;" class="s6" d="m180.1 153.3h-90c-5.7 0-10.8-4.7-11.3-10.4l-4.5-55.4c-0.4-5.7 3.9-10.4 9.6-10.4h90c5.8 0 10.8 4.7 11.3 10.4l4.5 55.4c0.5 5.7-3.8 10.4-9.6 10.4z"/>
					<path id="&lt;Compound Path&gt;" fill-rule="evenodd" class="s7" d="m180.1 153.7h-90c-6 0-11.2-4.8-11.7-10.8l-4.5-55.4c-0.2-2.8 0.7-5.6 2.6-7.6 1.9-2.1 4.5-3.2 7.4-3.2h90c6 0 11.2 4.8 11.7 10.8l4.5 55.4c0.3 2.9-0.7 5.6-2.6 7.6-1.8 2.1-4.5 3.2-7.4 3.2zm-96.2-76.1c-2.7 0-5.1 1-6.8 2.9-1.7 1.8-2.6 4.3-2.3 7l4.5 55.4c0.4 5.5 5.3 10 10.8 10h90c2.7 0 5.1-1.1 6.8-2.9 1.7-1.9 2.6-4.4 2.4-7.1l-4.5-55.4c-0.5-5.5-5.3-9.9-10.9-9.9z"/>
				</g>
				<g id="&lt;Group&gt;">
					<path id="&lt;Path&gt;" class="s2" d="m82.1 88.3h47.7l0.4 4.7h-47.7z"/>
					<path id="&lt;Path&gt;" class="s9" d="m177.9 93h-47.7l-0.4-4.7h47.7z"/>
					<path id="&lt;Path&gt;" class="s2" d="m83.1 100.6h13.6l0.4 4.7h-13.6z"/>
					<path id="&lt;Path&gt;" class="s9" d="m178.9 105.3h-81.8l-0.4-4.7h81.8z"/>
					<path id="&lt;Path&gt;" class="s2" d="m84.1 112.8h42.5l0.4 4.8h-42.5z"/>
					<path id="&lt;Path&gt;" class="s9" d="m179.9 117.6h-52.9l-0.4-4.8h52.9z"/>
					<path id="&lt;Path&gt;" class="s2" d="m85.1 125.1h72.5l0.4 4.7h-72.5z"/>
					<path id="&lt;Path&gt;" class="s9" d="m180.9 129.8h-22.9l-0.4-4.7h22.9z"/>
					<path id="&lt;Path&gt;" class="s2" d="m86.1 137.4h33.5l0.4 4.7h-33.5z"/>
					<path id="&lt;Path&gt;" class="s9" d="m181.9 142.1h-61.9l-0.4-4.7h61.9z"/>
				</g>
			</g>
			<g id="&lt;Group&gt;">
				<g id="&lt;Group&gt;">
					<path id="&lt;Path&gt;" class="s6" d="m303.3 153.3h-90.1c-5.7 0-10.8-4.7-11.2-10.4l-4.5-55.4c-0.5-5.7 3.8-10.4 9.5-10.4h90.1c5.7 0 10.8 4.7 11.2 10.4l4.5 55.4c0.5 5.7-3.8 10.4-9.5 10.4z"/>
					<path id="&lt;Compound Path&gt;" fill-rule="evenodd" class="s7" d="m303.3 153.7h-90.1c-5.9 0-11.2-4.8-11.7-10.8l-4.5-55.4c-0.2-2.8 0.7-5.6 2.6-7.6 1.9-2.1 4.5-3.2 7.4-3.2h90.1c5.9 0 11.2 4.8 11.7 10.8l4.5 55.4c0.2 2.9-0.7 5.6-2.6 7.6-1.9 2.1-4.5 3.2-7.4 3.2zm-96.3-76.1c-2.6 0-5 1-6.8 2.9-1.7 1.8-2.5 4.3-2.3 7l4.5 55.4c0.4 5.5 5.3 10 10.8 10h90.1c2.6 0 5-1.1 6.7-2.9 1.8-1.9 2.6-4.4 2.4-7.1l-4.5-55.4c-0.5-5.5-5.3-9.9-10.8-9.9z"/>
				</g>
				<g id="&lt;Group&gt;">
					<path id="&lt;Path&gt;" class="s2" d="m258.1 142.1h-1.6l-4.3-53.8h1.5z"/>
					<path id="&lt;Path&gt;" class="s9" d="m260.5 119.8h-10l-1.7-21.1h10z"/>
					<path id="&lt;Path&gt;" class="s2" d="m238.4 142.1h-1.6l-4.4-53.8h1.6z"/>
					<path id="&lt;Path&gt;" class="s9" d="m241.2 124.4h-10.1l-1.5-18.4h10.1z"/>
					<path id="&lt;Path&gt;" class="s2" d="m218.6 142.1h-1.5l-4.4-53.8h1.6z"/>
					<path id="&lt;Path&gt;" class="s8" d="m220.2 109.3h-10l-1.1-12.7h10.1z"/>
					<path id="&lt;Path&gt;" class="s2" d="m277.9 142.1h-1.6l-4.4-53.8h1.6z"/>
					<path id="&lt;Path&gt;" class="s8" d="m281.2 131.7h-10l-2.7-33h10.1z"/>
					<path id="&lt;Path&gt;" class="s2" d="m297.6 142.1h-1.6l-4.4-53.8h1.6z"/>
					<path id="&lt;Path&gt;" class="s9" d="m301.3 135.6h-10l-2.2-26.4h10.1z"/>
				</g>
			</g>
			<g id="&lt;Group&gt;">
				<g id="&lt;Group&gt;">
					<path id="&lt;Path&gt;" class="s6" d="m206.9 324.8h-90.1c-5.7 0-10.8-4.7-11.2-10.4l-4.5-55.4c-0.5-5.7 3.8-10.4 9.5-10.4h90.1c5.7 0 10.8 4.7 11.2 10.4l4.5 55.4c0.5 5.7-3.8 10.4-9.5 10.4z"/>
					<path id="&lt;Compound Path&gt;" fill-rule="evenodd" class="s7" d="m206.9 325.2h-90.1c-5.9 0-11.2-4.8-11.7-10.8l-4.5-55.4c-0.2-2.9 0.7-5.6 2.6-7.7 1.9-2 4.5-3.1 7.4-3.1h90.1c5.9 0 11.2 4.8 11.7 10.8l4.5 55.3c0.2 2.9-0.7 5.7-2.6 7.7-1.9 2.1-4.5 3.2-7.4 3.2zm-96.3-76.2c-2.6 0-5 1.1-6.7 2.9-1.8 1.9-2.6 4.4-2.4 7.1l4.5 55.3c0.5 5.6 5.3 10 10.8 10h90.1c2.6 0 5-1 6.8-2.9 1.7-1.8 2.5-4.3 2.3-7l-4.5-55.4c-0.5-5.5-5.3-10-10.8-10z"/>
				</g>
				<g id="&lt;Group&gt;">
					<path id="&lt;Path&gt;" class="s9" d="m122.8 285.4l19.4 22.4 22.3-34.3 13.7 17.7 3.4-5.2 22.5 27h-86.4z"/>
					<path id="&lt;Path&gt;" class="s2" d="m204.1 312.9l-86.4 0.1 14.2-30.5 4.4 6.9 13.5-29 28.8 45.7 9-19.3z"/>
				</g>
			</g>
		</g>
	</g>
	<g id="Character">
		<g id="&lt;Group&gt;">
			<path id="&lt;Path&gt;" class="s9" d="m372.9 159.1c2.4 4.5 4.5 8.9 6.4 13.6 1.9 4.7 3.7 9.4 5 14.4q0.6 1.9 1 3.8c0.1 0.4 0.4 1.8 0.4 2.7 0 1-0.1 1.9-0.2 2.7-0.5 3.3-1.7 5.9-2.9 8.3-2.6 4.8-5.8 8.7-9.4 12.4-1.1 1.2-2.9 1.2-4 0.1-0.9-0.9-1.1-2.2-0.5-3.3v-0.2c2.2-4.1 4.3-8.5 5.7-12.6 0.7-2.1 1.3-4.2 1.3-5.7 0-0.4-0.1-0.7-0.1-1q0-0.2-0.1-0.3l-0.2-0.5q-0.5-1.7-1.1-3.3c-1.5-4.3-3.3-8.7-5.3-13-1.9-4.3-4-8.7-6.1-12.9v-0.1c-1.4-2.8-0.2-6.2 2.6-7.6 2.7-1.3 6-0.2 7.5 2.5z"/>
			<path id="&lt;Path&gt;" class="s10" d="m371.8 213.6l0.8 0.5c0.8 0.6 1.2 1.6 0.9 2.5q-0.7 2.8-2.9 4.7l-5.6-6.6 4.8-1.5c0.7-0.2 1.4-0.1 2 0.4z"/>
			<path id="&lt;Path&gt;" class="s10" d="m365 214.7l5.6 6.6-6.2 2.2-6-4.7z"/>
			<path id="&lt;Path&gt;" class="s8" d="m337.9 125.6c-0.2 0.6-0.6 1-1 0.9-0.4 0-0.6-0.6-0.4-1.2 0.1-0.6 0.5-1 0.9-0.9 0.4 0.1 0.6 0.6 0.5 1.2z"/>
			<path id="&lt;Path&gt;" class="s11" d="m336.2 132.2q-1.8 0.1-2.7-1.1 1.8-1.3 3.9-4.5z"/>
			<path id="&lt;Path&gt;" class="s8" d="m340.4 122.7c-1-1.2-2.3-1-2.4-1-0.1 0-0.3-0.1-0.4-0.3 0-0.2 0.1-0.4 0.3-0.4 0.1 0 1.7-0.3 3 1.2 0.2 0.1 0.2 0.3 0 0.5q-0.1 0.1-0.2 0.1-0.2 0-0.3-0.1z"/>
			<path id="&lt;Path&gt;" class="s10" d="m354.3 136.4c-1.1 5.5-1.7 13 2.1 16.7q-1.5 5.6-11.7 5.6-11.2 0-5.4-4.9c4.7-1.5 4.6-6.8 3.6-11z"/>
			<path id="&lt;Path&gt;" class="s9" d="m337.4 152.9q1.6-3.8 3.3-4.5c1.6-0.7 12.2-2.4 14.7-0.9q2.4 1.6 4.1 6.5z"/>
			<path id="&lt;Compound Path&gt;" fill-rule="evenodd" class="s7" d="m348.6 409c-1 0-1.9-0.2-2.2-0.6-0.1-0.1-0.2-0.4 0-0.8q0.2-0.3 0.6-0.4c1.2-0.3 3.8 1.2 3.9 1.2q0.1 0.1 0.1 0.2 0 0.1-0.1 0.2c-0.5 0.1-1.4 0.2-2.3 0.2zm-1.2-1.5q-0.2 0-0.3 0.1-0.3 0-0.4 0.2c-0.1 0.2-0.1 0.3 0 0.4 0.3 0.5 2.2 0.5 3.6 0.3-0.7-0.4-2-1-2.9-1z"/>
			<path id="&lt;Compound Path&gt;" fill-rule="evenodd" class="s7" d="m350.8 408.8q0 0 0 0c-0.9-0.4-2.7-2.1-2.6-2.9 0.1-0.2 0.2-0.5 0.7-0.5q0.5-0.1 1 0.3c0.9 0.8 1.1 2.8 1.1 2.9q0 0.1 0 0.1-0.1 0.1-0.2 0.1zm-1.8-3.1q0 0-0.1 0c-0.3 0.1-0.3 0.2-0.3 0.2-0.1 0.6 1.1 1.8 2 2.4-0.1-0.6-0.3-1.8-1-2.3q-0.2-0.3-0.6-0.3z"/>
			<path id="&lt;Path&gt;" class="s10" d="m359.1 408.6h-7.5l-0.8-17.3h7.5z"/>
			<path id="&lt;Path&gt;" class="s8" d="m351.6 407.7h8.2c0.3 0 0.6 0.2 0.7 0.5l1.4 6.7c0.2 0.7-0.3 1.3-1 1.3-3 0-7.3-0.2-11-0.2-4.3 0-4.8 0.2-9.9 0.2-3.1 0-3.9-3.1-2.6-3.4 5.8-1.2 7.4-1.4 12.4-4.5 0.6-0.3 1.2-0.6 1.8-0.6z"/>
			<path id="&lt;Path&gt;" class="s8" d="m369.8 153.1q7 1.6 11.6 20.6l-11.7 8.8q-6.4-4-8.7-13c-2.4-9.3 1.6-18 8.8-16.4z"/>
			<path id="&lt;Path&gt;" class="s12" d="m363.8 166.3c3.8 3.8 6.3 9.7 6.5 15.7l-0.6 0.5q-6.4-4-8.7-13-0.2-0.8-0.3-1.6z"/>
			<g id="&lt;Group&gt;">
				<g id="&lt;Group&gt;">
					<path id="&lt;Path&gt;" class="s9" d="m411.9 223.6l-56.8 22.7-16.9-42.3 56.8-22.7z"/>
					<path id="&lt;Path&gt;" class="s13" d="m411.1 223.9l-56 22.4-16.9-42.3 56-22.4z"/>
				</g>
				<g id="&lt;Group&gt;" style="opacity: .5">
					<path id="&lt;Path&gt;" class="s7" d="m349.9 208l-5.3 2.1-1.5-3.7 5.3-2.2z"/>
					<path id="&lt;Path&gt;" class="s7" d="m358.7 204.5l-5.3 2.1-1.5-3.7 5.3-2.2z"/>
					<path id="&lt;Path&gt;" class="s7" d="m367.4 201l-5.3 2.1-1.5-3.7 5.3-2.2z"/>
					<path id="&lt;Path&gt;" class="s7" d="m376.2 197.5l-5.3 2.1-1.5-3.7 5.3-2.2z"/>
					<path id="&lt;Path&gt;" class="s7" d="m385 194l-5.3 2.1-1.5-3.7 5.3-2.2z"/>
					<path id="&lt;Path&gt;" class="s7" d="m393.7 190.5l-5.3 2.1-1.5-3.7 5.3-2.2z"/>
					<path id="&lt;Path&gt;" class="s7" d="m352.4 214.2l-5.3 2.1-1.5-3.7 5.3-2.2z"/>
					<path id="&lt;Path&gt;" class="s7" d="m361.2 210.7l-5.3 2.1-1.5-3.7 5.3-2.2z"/>
					<path id="&lt;Path&gt;" class="s7" d="m369.9 207.2l-5.3 2.1-1.5-3.7 5.3-2.2z"/>
					<path id="&lt;Path&gt;" class="s7" d="m378.7 203.7l-5.3 2.1-1.5-3.7 5.3-2.2z"/>
					<path id="&lt;Path&gt;" class="s7" d="m387.4 200.2l-5.3 2.1-1.5-3.7 5.3-2.1z"/>
					<path id="&lt;Path&gt;" class="s7" d="m396.2 196.7l-5.3 2.1-1.5-3.7 5.3-2.1z"/>
					<path id="&lt;Path&gt;" class="s7" d="m354.9 220.4l-5.3 2.1-1.5-3.7 5.3-2.2z"/>
					<path id="&lt;Path&gt;" class="s7" d="m363.7 216.9l-5.3 2.1-1.5-3.7 5.3-2.2z"/>
					<path id="&lt;Path&gt;" class="s7" d="m372.4 213.4l-5.3 2.1-1.5-3.7 5.3-2.1z"/>
					<path id="&lt;Path&gt;" class="s7" d="m381.2 209.9l-5.3 2.1-1.5-3.7 5.3-2.1z"/>
					<path id="&lt;Path&gt;" class="s7" d="m389.9 206.4l-5.3 2.1-1.5-3.7 5.3-2.1z"/>
					<path id="&lt;Path&gt;" class="s7" d="m398.7 202.9l-5.3 2.1-1.5-3.7 5.3-2.1z"/>
					<path id="&lt;Path&gt;" class="s7" d="m357.4 226.6l-5.3 2.1-1.5-3.7 5.3-2.1z"/>
					<path id="&lt;Path&gt;" class="s7" d="m366.1 223.1l-5.3 2.1-1.5-3.7 5.3-2.1z"/>
					<path id="&lt;Path&gt;" class="s7" d="m374.9 219.6l-5.3 2.1-1.5-3.7 5.3-2.1z"/>
					<path id="&lt;Path&gt;" class="s7" d="m383.6 216.1l-5.3 2.1-1.5-3.7 5.3-2.1z"/>
					<path id="&lt;Path&gt;" class="s7" d="m392.4 212.6l-5.3 2.1-1.5-3.7 5.3-2.1z"/>
					<path id="&lt;Path&gt;" class="s7" d="m401.1 209.1l-5.3 2.1-1.5-3.7 5.3-2.1z"/>
					<path id="&lt;Path&gt;" class="s7" d="m359.9 232.8l-5.3 2.1-1.5-3.7 5.3-2.1z"/>
					<path id="&lt;Path&gt;" class="s7" d="m368.6 229.3l-5.3 2.1-1.5-3.7 5.3-2.1z"/>
					<path id="&lt;Path&gt;" class="s7" d="m377.4 225.8l-5.3 2.1-1.5-3.7 5.3-2.1z"/>
					<path id="&lt;Path&gt;" class="s7" d="m386.1 222.3l-5.3 2.1-1.5-3.7 5.3-2.1z"/>
					<path id="&lt;Path&gt;" class="s7" d="m394.9 218.8l-5.3 2.1-1.5-3.7 5.3-2.1z"/>
					<path id="&lt;Path&gt;" class="s7" d="m403.6 215.3l-5.3 2.1-1.5-3.7 5.3-2.1z"/>
					<path id="&lt;Path&gt;" class="s7" d="m362.3 239l-5.3 2.1-1.5-3.7 5.3-2.1z"/>
					<path id="&lt;Path&gt;" class="s7" d="m371.1 235.5l-5.3 2.1-1.5-3.7 5.3-2.1z"/>
					<path id="&lt;Path&gt;" class="s7" d="m379.8 232l-5.3 2.1-1.5-3.7 5.3-2.1z"/>
					<path id="&lt;Path&gt;" class="s7" d="m388.6 228.5l-5.3 2.1-1.5-3.7 5.3-2.1z"/>
					<path id="&lt;Path&gt;" class="s7" d="m397.4 225l-5.3 2.1-1.5-3.7 5.3-2.1z"/>
					<path id="&lt;Path&gt;" class="s7" d="m406.1 221.5l-5.3 2.1-1.5-3.7 5.3-2.1z"/>
				</g>
				<g id="&lt;Group&gt;">
					<path id="&lt;Path&gt;" class="s6" d="m390.3 194.7c-0.3-0.8 0.1-1.7 0.9-2.1 0.8-0.3 1.7 0.1 2.1 0.9 0.3 0.8-0.1 1.8-0.9 2.1-0.8 0.3-1.8-0.1-2.1-0.9z"/>
					<path id="&lt;Path&gt;" class="s6" d="m389 216.8c-0.3-0.8 0.1-1.7 0.9-2 0.8-0.4 1.7 0 2 0.8 0.4 0.8 0 1.8-0.8 2.1-0.9 0.3-1.8-0.1-2.1-0.9z"/>
					<path id="&lt;Path&gt;" class="s6" d="m369 217.6c-0.3-0.8 0.1-1.7 0.9-2.1 0.8-0.3 1.7 0.1 2.1 0.9 0.3 0.8-0.1 1.8-0.9 2.1-0.8 0.3-1.8-0.1-2.1-0.9z"/>
					<path id="&lt;Path&gt;" class="s6" d="m356.5 237c-0.4-0.8 0-1.7 0.8-2.1 0.9-0.3 1.8 0.1 2.1 0.9 0.3 0.8-0.1 1.8-0.9 2.1-0.8 0.3-1.7-0.1-2-0.9z"/>
					<path id="&lt;Path&gt;" class="s6" d="m357.9 237q-0.1 0-0.3-0.1c-0.3-0.2-0.3-0.5-0.2-0.8l12.6-19.4c0.1-0.2 0.3-0.3 0.5-0.3l19.4-0.7 1.3-21.6c0-0.3 0.3-0.6 0.6-0.6 0.3 0 0.6 0.3 0.6 0.6l-1.3 22.2c-0.1 0.3-0.3 0.5-0.6 0.5l-19.7 0.8-12.4 19.1c-0.1 0.2-0.3 0.3-0.5 0.3z"/>
				</g>
			</g>
			<path id="&lt;Path&gt;" class="s8" d="m334 152.2c1.7-0.3 3.5-0.6 5.4-0.8 4.5-0.4 11.9-0.2 17 0q6.5 0.3 13.4 1.7c-5.9 29-3.1 59.4-2.4 65.1h-40c-4.4-32.9-3.5-49.5-1.9-57.6 0.8-4.3 4.2-7.7 8.5-8.4z"/>
			<path id="&lt;Path&gt;" class="s12" d="m327.8 218.2h-0.4c-2.8-20.6-3.4-34.8-3.2-44.5l7.6-0.6c6.5 9.1 0.5 30.3-4 45.1z"/>
			<g id="&lt;Group&gt;">
				<path id="&lt;Path&gt;" class="s12" d="m358.3 391.3l0.4 8.9h-7.5l-0.3-8.9z"/>
			</g>
			<path id="&lt;Path&gt;" class="s10" d="m357.8 128.4c-1.9 7.1-2.6 11.4-7.1 14.4-6.6 4.5-14.9-0.6-15.2-8.2-0.2-6.9 3-17.5 10.7-18.9 7.6-1.4 13.6 5.5 11.6 12.7z"/>
			<path id="&lt;Path&gt;" class="s8" d="m341 128.4l-3.8 1 3.6-9.4c-0.4-0.7-1.5-3.9-0.4-7.2 0.3-0.9 1.1-1.4 2-1.5 8.1-0.1 16.5 4.4 20.8 7.8 0.8 0.7 1 1.9 0.4 2.7-0.9 1.6-2.1 2.7-3.6 4.3-0.1 2.6-4.4 14.5-6.8 15.8-2.3 1.3-6.9 0.8-8.1-1.4-1.2-2.1-5.3-5-4.1-12.1z"/>
			<path id="&lt;Path&gt;" class="s10" d="m344.6 128.6c-0.4 1.9-1.6 3.5-2.9 4.5-1.9 1.5-3.4 0.1-3.3-2.1 0.1-2 1.2-5.1 3.3-5.8 2.1-0.6 3.4 1.2 2.9 3.4z"/>
			<path id="&lt;Compound Path&gt;" fill-rule="evenodd" class="s7" d="m413.1 406.4c0-1 0.1-1.9 0.5-2.2 0.2-0.1 0.4-0.2 0.8 0q0.3 0.2 0.4 0.6c0.4 1.2-1.1 3.8-1.2 3.9q0 0.1-0.1 0.1-0.2 0-0.2-0.1c-0.1-0.5-0.2-1.4-0.2-2.3zm1.4-1.2q0-0.2 0-0.3-0.1-0.3-0.3-0.4c-0.2-0.1-0.3-0.1-0.4 0-0.4 0.3-0.4 2.2-0.2 3.6 0.3-0.7 0.9-2 0.9-2.9z"/>
			<path id="&lt;Compound Path&gt;" fill-rule="evenodd" class="s7" d="m413.3 408.7q0-0.1 0-0.1c0.4-0.9 2-2.7 2.9-2.6 0.2 0 0.4 0.2 0.5 0.7q0 0.5-0.3 0.9c-0.8 1-2.8 1.2-2.9 1.2q-0.1 0-0.2 0 0-0.1 0-0.1zm3-1.9q0 0 0-0.1c0-0.3-0.1-0.3-0.2-0.3-0.5-0.1-1.8 1.1-2.3 2 0.6-0.1 1.8-0.3 2.3-1q0.2-0.3 0.2-0.6z"/>
			<path id="&lt;Path&gt;" class="s10" d="m413.4 408.7l-7.3 0.5-4.1-17.5 7.3-0.5z"/>
			<path id="&lt;Path&gt;" class="s8" d="m415.1 407.8c2 2.3 3 3.5 8.8 5.3 1.2 0.4 0.1 3.4-3 3.1-5-0.4-2.2-0.4-6.5-0.8-3.7-0.3-8-0.5-10.9-0.7-0.7-0.1-1.2-0.8-1-1.4l2.1-6.5c0.1-0.3 0.3-0.5 0.6-0.5l8.2 0.7c0.6 0.1 1.3 0.3 1.7 0.8z"/>
			<g id="&lt;Group&gt;">
				<path id="&lt;Path&gt;" class="s12" d="m409.3 391.2l2.1 9-7.3 0.6-2.1-9z"/>
			</g>
			<path id="&lt;Path&gt;" class="s9" d="m367.4 218.2q13.2 52.6 19.2 77.6 7.7 32.6 26.3 99.2l-13.2 2.9q-27.2-77.5-34.3-100.9-6.6-21.3-23.8-78.8z"/>
			<path id="&lt;Path&gt;" class="s8" d="m414.5 392.6l0.1 4.7-15.9 1.7q-1.3-5.1-1.3-5.1z"/>
			<path id="&lt;Path&gt;" class="s14" d="m351.2 244.8c9.5 1.3 13.3 34.5 14.7 54q-0.3-0.9-0.5-1.8c-3.6-11.6-10.4-34.1-15.8-52q0.7-0.3 1.6-0.2z"/>
			<path id="&lt;Path&gt;" class="s9" d="m353.7 218.2q4.4 55.2 4.9 80.6 0.5 23.3 2.1 99.7h-12.7q-9.7-77.8-12.3-101.5-2.5-22.8-8.3-78.8z"/>
			<path id="&lt;Path&gt;" class="s8" d="m362.6 394l-0.5 4.7h-15.4q-0.8-5.3-0.7-5.3z"/>
			<g id="&lt;Group&gt;">
				<path id="&lt;Compound Path&gt;" fill-rule="evenodd" class="s8" d="m280.3 239.9c10.5-6.6 24.3-3.4 30.9 7.1 6.6 10.4 3.5 24.3-7 30.9-10.5 6.6-24.3 3.5-30.9-7-6.6-10.5-3.5-24.4 7-31zm1.9 3c-8.9 5.6-11.5 17.3-5.9 26.1 5.5 8.8 17.2 11.5 26 5.9 8.8-5.6 11.5-17.2 5.9-26.1-5.5-8.8-17.2-11.4-26-5.9z"/>
				<path id="&lt;Path&gt;" class="s15" d="m309.1 262.7c-2.1 9.4-11.4 15.2-20.7 13.1-9.3-2.1-15.1-11.4-13-20.7 2.1-9.3 11.3-15.2 20.7-13.1 9.3 2.1 15.1 11.4 13 20.7z"/>
				<path id="&lt;Path&gt;" class="s8" d="m311.8 244.2l2.1 3.4c0.4 0.5 0.2 1.1-0.3 1.5-0.5 0.3-1.2 0.1-1.5-0.4l-2.1-3.3c-0.3-0.5-0.2-1.2 0.3-1.5 0.6-0.3 1.2-0.2 1.5 0.3z"/>
				<path id="&lt;Path&gt;" class="s8" d="m331.7 230.6c0.6-0.4 1.4-0.2 1.8 0.4l1.7 2.7c0.4 0.6 0.2 1.4-0.4 1.8q-3.2 2-6.4 3.9-3.8 2.2-7.7 4.3c-2.6 1.4-5.2 2.8-7.9 4-0.8 0.4-1.7 0.1-2-0.7-0.3-0.6-0.1-1.4 0.4-1.8 2.3-1.9 4.6-3.6 7-5.4q3.6-2.6 7.3-5.1 3.1-2.1 6.2-4.1z"/>
			</g>
			<path id="&lt;Path&gt;" class="s9" d="m336.6 163.4q-1.8 9-3.9 18l-4.1 17.8c-1.4 5.9-2.5 11.8-3.6 17.7l-3.1 18.1c-0.3 1.5-1.8 2.6-3.3 2.3-1.3-0.2-2.3-1.4-2.3-2.7-0.3-6.2-0.2-12.4 0.2-18.6 0.4-6.2 0.9-12.5 2-18.7 0.9-6.1 2-12.2 3.2-18.2q1.7-9.1 3.8-18.1c0.7-3 3.8-4.9 6.8-4.2 3 0.7 4.9 3.6 4.3 6.6z"/>
			<path id="&lt;Path&gt;" class="s10" d="m324.3 240.5l0.6 1.9c0.5 1.4-0.4 2.9-1.8 3.2q-2.4 0.5-2.4 0.5c-0.9 0.2-1.9-0.2-2.5-1l-2.2-3.6c-0.6-0.9-0.8-2-0.6-3l0.4-3.6c0.1-0.9 0.8-1.6 1.6-1.8l1.6-0.4c0.7-0.1 1.5 0.1 2 0.6 3.3 3.5 3.3 7.2 3.3 7.2z"/>
			<path id="&lt;Path&gt;" class="s8" d="m344.4 160q3.6 9.6-9 23.4l-15.9-5.3q1.2-13.2 6.8-20.6c6.8-9.2 15.3-4.9 18.1 2.5z"/>
		</g>
	</g>
</svg>