<svg version="1.2" xmlns="http://www.w3.org/2000/svg" viewBox="0 0 209 209" width="209" height="209">
	<title>Pasta 1</title>
	<style>
		.s0 { fill: #ffc107 } 
		.s1 { fill: #000000 } 
	</style>
	<g id="&lt;Group&gt;">
		<circle id="&lt;Path&gt;" class="s0" cx="104.5" cy="115.5" r="41.5"/>
		<g id="&lt;Group&gt;">
			<g id="&lt;Group&gt;">
				<g id="&lt;Group&gt;">
					<path id="&lt;Compound Path&gt;" fill-rule="evenodd" class="s0" d="m104.6 208.9c-57.8 0-104.5-46.7-104.5-104.5 0-57.7 46.7-104.4 104.5-104.4 57.7 0 104.4 46.7 104.4 104.4 0 57.8-46.7 104.5-104.4 104.5zm100-104.4c0-55.5-44.9-100.4-100.5-100.4-55.5 0-100.4 44.9-100.4 100.4 0 55.6 44.9 100.5 100.4 100.5 55.6 0 100.5-44.9 100.5-100.5z"/>
				</g>
				<g id="&lt;Group&gt;">
					<g id="&lt;Group&gt;">
						<g id="&lt;Group&gt;">
							<path id="&lt;Path&gt;" class="s1" d="m79.1 129.4l-2.8-2.8 3.2-3.2 0.7-12q0-0.4 0.2-0.7l12.6-27.2c0.2-0.4 2-3.7 5.2-3.9q3-0.2 5.5 3.4c3 4.2 1.9 11.3 0.6 16.2l29.4-29.4c1.4-1.5 3.3-2.3 5.3-2.3 2 0 3.8 0.7 5.2 2.1 1.4 1.4 2.2 3.3 2.1 5.3 0 2-0.8 3.8-2.2 5.3l-2.8-2.9c0.6-0.6 1-1.5 1-2.5 0.1-0.9-0.3-1.7-0.9-2.3-0.6-0.7-1.5-1-2.4-1-0.9 0-1.8 0.4-2.5 1.1l-31.8 31.8q-0.4 0.5-1.1 0.6l-2.4 0.4c-0.7 0.1-1.5-0.1-1.9-0.7-0.5-0.6-0.6-1.3-0.3-2 1.3-3.5 4.2-13.4 1.4-17.4-0.9-1.3-1.6-1.8-2-1.7-0.6 0-1.5 1.1-1.8 1.7l-12.4 26.7-0.7 12.3c-0.1 0.5-0.3 1-0.6 1.3z"/>
						</g>
						<g id="&lt;Group&gt;">
							<path id="&lt;Path&gt;" class="s1" d="m117.2 107.1l-2.9-2.8 27-27 2.8 2.9z"/>
						</g>
						<g id="&lt;Group&gt;">
							<g id="&lt;Group&gt;">
								<path id="&lt;Path&gt;" class="s1" d="m117.5 106.8l-2.8-2.9 8.4-8.4c2.9-2.9 7.7-3 10.5-0.1 2.9 2.8 2.8 7.6-0.1 10.5l-2.8-2.8c1.4-1.4 1.4-3.6 0.1-4.9-1.3-1.3-3.5-1.3-4.9 0.1z"/>
							</g>
							<g id="&lt;Group&gt;">
								<path id="&lt;Path&gt;" class="s1" d="m124.1 115.3l-2.9-2.8 9.5-9.4 2.8 2.8z"/>
							</g>
						</g>
						<g id="&lt;Group&gt;">
							<g id="&lt;Group&gt;">
								<path id="&lt;Path&gt;" class="s1" d="m137.7 116.9l-2.9-2.8c1.4-1.4 1.5-3.6 0.2-4.9-1.3-1.3-3.5-1.3-4.9 0.1l-2.8-2.8c2.9-3 7.6-3 10.5-0.1 2.9 2.8 2.8 7.5-0.1 10.5z"/>
							</g>
							<g id="&lt;Group&gt;">
								<path id="&lt;Path&gt;" class="s1" d="m130 124.6l-2.9-2.8 7.7-7.7 2.9 2.8z"/>
							</g>
						</g>
						<g id="&lt;Group&gt;">
							<g id="&lt;Group&gt;">
								<path id="&lt;Path&gt;" class="s1" d="m142 127.7l-2.8-2.8c0.6-0.7 1-1.6 1-2.5 0-0.9-0.3-1.8-0.9-2.4-1.3-1.3-3.5-1.2-4.9 0.1l-2.8-2.8c2.9-2.9 7.6-3 10.5-0.1 1.4 1.4 2.2 3.3 2.1 5.3 0 1.9-0.8 3.8-2.2 5.2z"/>
							</g>
							<g id="&lt;Group&gt;">
								<path id="&lt;Path&gt;" class="s1" d="m106.1 157.3l-2.9-2.8 3.5-3.5q0.4-0.3 0.8-0.5l8.8-2.8 22.9-22.8 2.8 2.8-23.2 23.2q-0.4 0.4-0.8 0.5l-8.8 2.8z"/>
							</g>
						</g>
						<g id="&lt;Group&gt;">
							<path id="&lt;Path&gt;" class="s1" d="m102.5 171.4l-2.8-2.8 7.9-7.9-34.1-34.1-7.9 7.9-2.8-2.8 9.3-9.4c0.7-0.7 2.1-0.7 2.8 0l36.9 36.9c0.8 0.8 0.8 2.1 0 2.9z"/>
						</g>
						<g id="&lt;Group&gt;">
							<path id="&lt;Path&gt;" class="s1" d="m98.5 162.9l-9.1-9.1 2.9-2.8 9 9z"/>
						</g>
						<g id="&lt;Group&gt;">
							<path id="&lt;Path&gt;" class="s1" d="m87.6 151.2q-0.4 0-0.8-0.2-0.3-0.1-0.6-0.4c-0.4-0.4-0.6-0.9-0.6-1.4q0-0.2 0-0.4 0.1-0.2 0.2-0.4 0-0.2 0.1-0.3 0.2-0.2 0.3-0.4 0.1-0.1 0.3-0.2 0.2-0.1 0.3-0.2 0.2-0.1 0.4-0.1c0.7-0.1 1.4 0.1 1.8 0.5q0.2 0.2 0.3 0.4 0.1 0.1 0.2 0.3 0 0.2 0.1 0.4 0 0.2 0 0.4 0 0.4-0.1 0.7-0.2 0.4-0.5 0.7-0.1 0.1-0.3 0.2-0.1 0.1-0.3 0.2-0.2 0.1-0.4 0.1-0.2 0.1-0.4 0.1z"/>
						</g>
					</g>
					<g id="&lt;Group&gt;">
						<path id="&lt;Path&gt;" class="s1" d="m104.5 58.4l-2.5-17.5 4-0.6 2.5 17.6z"/>
					</g>
					<g id="&lt;Group&gt;">
						<path id="&lt;Path&gt;" class="s1" d="m119.1 66.3l-3.2-2.4 10.7-14.2 3.2 2.4z"/>
					</g>
					<g id="&lt;Group&gt;">
						<path id="&lt;Path&gt;" class="s1" d="m96.7 69.5l-14.2-10.7 2.4-3.2 14.2 10.7z"/>
					</g>
				</g>
			</g>
		</g>
	</g>
</svg>