<svg version="1.2" xmlns="http://www.w3.org/2000/svg" viewBox="0 0 512 260" width="512" height="260">
	<title>394105-PCO300-402-ai</title>
	<defs>
		<clipPath clipPathUnits="userSpaceOnUse" id="cp1">
			<path d="m116.27 36.51q56.72 87-2.24 187.93-56.02 95.89-93.63-16.55-22.6-69.02-20.16-94.06c2.44-25.04-0.61-68.41 23.21-75.13 23.83-6.71 50.07-11.61 75.12-9.78"/>
		</clipPath>
	</defs>
	<style>
		.s0 { fill: #f6931d } 
		.s1 { fill: #414042 } 
		.s2 { fill: #f7941e } 
		.s3 { fill: #fbb040 } 
		.s4 { fill: #ffffff } 
	</style>
	<g id="&lt;Group&gt;">
		<path id="EASY" class="s0" aria-label="EASY"  d="m251.8 104v-9.3h30v-17.2h-30v-8.3h34.2v-18.1h-57.7v70.9h59v-18zm97.7 18h24.7l-31-70.9h-23.5l-31 70.9h24.3l4.8-12.4h26.9zm-25.1-29.5l6.9-17.8 6.9 17.8zm80.1 31.2c22 0 33-11 33-23.9 0-26.1-39.2-19.1-39.2-27.6 0-2.4 2.3-4.4 9.3-4.4 6.1 0 12.7 1.7 19.7 5.2l7.2-17.3c-7.4-4.1-17.2-6.1-26.7-6.1-22 0-33.1 10.7-33.1 23.9 0 26.4 39.2 19.2 39.2 28.1 0 2.4-2.4 3.8-9.2 3.8-7.8 0-16.7-2.5-23.4-6.4l-7.7 17.4c7.1 4.3 19.1 7.3 30.9 7.3zm107.5-72.5h-23.1l-14.6 24.5-14.5-24.5h-25.2l26.7 44.8v26h23.9v-25.7z"/>
		<path id="PAY" class="s1" aria-label="PAY"  d="m262.5 151.1h-34.2v70.9h23.9v-17.4h10.3c19.7 0 32.3-10.3 32.3-26.7 0-16.4-12.6-26.8-32.3-26.8zm-1.6 35.1h-8.7v-16.6h8.7c6.6 0 9.8 3.1 9.8 8.3 0 5.1-3.2 8.3-9.8 8.3zm91.2 35.8h24.7l-31-70.9h-23.5l-31 70.9h24.3l4.8-12.4h26.9zm-25.1-29.5l6.9-17.8 6.9 17.8zm118-41.3h-23.1l-14.6 24.5-14.5-24.5h-25.2l26.7 44.8v26h23.9v-25.7z"/>
	</g>
	<g id="&lt;Group&gt;">
		<path id="&lt;Path&gt;" class="s1" d="m202.3 129.6c0 69.9-21.7 126.6-48.5 126.6-11 0-21.1-9.6-29.2-25.7q1.9 0.5 3.9 0.5c21.5 0 38.9-45.4 38.9-101.4 0-56-17.4-101.4-38.9-101.4q-2 0-3.9 0.6c8.1-16.2 18.2-25.7 29.2-25.7 26.8 0 48.5 56.6 48.5 126.5z"/>
		<g id="&lt;Clip Group&gt;" clip-path="url(#cp1)">
			<g id="&lt;Group&gt;">
				<path id="&lt;Path&gt;" class="s2" d="m134.6 212.4c-45 16.1-94.6-7.3-110.8-52.3-16.2-45 7.2-94.6 52.2-110.8 45-16.1 94.7 7.2 110.8 52.3 16.2 45-7.2 94.6-52.2 110.8z"/>
				<g id="&lt;Group&gt;">
					<path id="&lt;Path&gt;" class="s3" d="m125.5 195.6c-35.7 12.8-75.1-5.7-88-41.5-12.9-35.7 5.7-75.1 41.5-88 35.7-12.8 75.2 5.7 88 41.5 12.9 35.7-5.7 75.1-41.5 88z"/>
				</g>
				<path id="$
" class="s4" aria-label="$"  d="m134.7 144c-0.4-13.9-12.6-17.2-23.6-19.4l-0.5-16.8c5 0.5 10.2 2 15.3 4.7l4.5-12.3c-5.5-3.3-12.7-5-20.1-5.4l-0.4-10.7-9.8 0.2 0.3 11c-15.5 2.2-22.9 11.4-22.6 21.8 0.5 14.1 12.8 17.4 23.8 19.8l0.5 16.4c-7.1-0.5-14.3-2.9-19.3-6.4l-5.1 12.2c5.5 4 15 6.8 24.8 7.1l0.3 10.8 9.8-0.3-0.3-11c15.4-2.4 22.7-11.5 22.4-21.7zm-41-28.1c-0.1-3.3 1.9-6.2 7.1-7.5l0.4 14c-4.4-1.3-7.4-3.1-7.5-6.5zm18.2 36.7l-0.4-13.6c4.3 1.4 7.2 3.2 7.3 6.6 0.1 3.2-2 5.8-6.9 7z"/>
			</g>
		</g>
	</g>
</svg>