<svg version="1.2" xmlns="http://www.w3.org/2000/svg" viewBox="0 0 209 209" width="209" height="209">
	<title>Pasta 1</title>
	<style>
		.s0 { fill: #ffc107 } 
		.s1 { fill: #fbba00 } 
		.s2 { fill: #000000 } 
	</style>
	<g id="&lt;Group&gt;">
		<g id="&lt;Group&gt;">
			<g id="&lt;Group&gt;">
				<circle id="&lt;Path&gt;" class="s0" cx="104.6" cy="115.5" r="41.5"/>
			</g>
			<g id="&lt;Group&gt;">
				<path id="&lt;Compound Path&gt;" fill-rule="evenodd" class="s1" d="m104.6 209c-57.8 0-104.5-46.7-104.5-104.4 0-57.8 46.7-104.5 104.5-104.5 57.7 0 104.4 46.7 104.4 104.5 0 57.7-46.7 104.4-104.4 104.4zm100.4-104.4c0-55.6-44.9-100.5-100.4-100.5-55.6 0-100.5 44.9-100.5 100.5 0 55.5 44.9 100.4 100.5 100.4 55.5 0 100.4-44.9 100.4-100.4z"/>
				<path id="&lt;Compound Path&gt; copy" fill-rule="evenodd" class="s0" d="m104.6 209c-57.8 0-104.5-46.7-104.5-104.4 0-57.8 46.7-104.5 104.5-104.5 57.7 0 104.4 46.7 104.4 104.5 0 57.7-46.7 104.4-104.4 104.4zm100.4-104.4c0-55.6-44.9-100.5-100.4-100.5-55.6 0-100.5 44.9-100.5 100.5 0 55.5 44.9 100.4 100.5 100.4 55.5 0 100.4-44.9 100.4-100.4z"/>
			</g>
			<g id="&lt;Group&gt;">
				<g id="&lt;Group&gt;">
					<path id="&lt;Path&gt;" class="s2" d="m52.8 166.1c-2.1 0-4.1-0.2-5.8-0.7-0.7-0.3-1.3-1-1.3-1.8-0.6-8.8 9.1-24.2 12.8-29.9l-3.6-1.4c-0.9-0.3-1.5-1.3-1.2-2.3 3.1-12.7 11.2-19.1 16.1-21.9l-4.4-2.2c-0.6-0.3-1-0.9-1.1-1.7-0.1-2.4 2.8-10.1 12.8-11.4l0.6 4c-6.1 0.8-8.4 4.3-9.1 6.2l6.7 3.3c0.7 0.4 1.1 1.1 1.1 1.9-0.1 0.8-0.6 1.5-1.4 1.8-0.5 0.2-12.5 4.5-17 19.3l4.3 1.6c0.6 0.2 1 0.7 1.2 1.3 0.2 0.6 0.1 1.2-0.3 1.7-3.7 5.3-12.9 19.9-13.5 28 8 1.5 24.5-3.8 30.5-6 0.5-0.3 1.2-0.2 1.7 0.1 0.5 0.3 0.9 0.9 1 1.5l0.5 4.6c15.5-0.6 22.9-11.5 22.9-11.6 0.5-0.7 1.3-1 2.1-0.9 0.8 0.2 1.4 0.8 1.6 1.6l1.4 7.3c1-0.1 2.5-0.5 4.1-1.5 2.9-2 4.9-5.8 5.6-11l4 0.6c-1.2 8.3-4.9 12.2-7.8 14-3.4 2.1-6.8 2.2-8.1 1.7-0.7-0.2-1.2-0.8-1.4-1.5l-0.9-4.8c-4 4.1-12.3 10.3-25.3 10.1-1 0-1.9-0.8-2-1.8l-0.4-3.8c-5.2 1.8-17.4 5.6-26.4 5.6z"/>
				</g>
				<g id="&lt;Group&gt;">
					<path id="&lt;Compound Path&gt;" fill-rule="evenodd" class="s2" d="m112.9 44.9c0-1.1 0.9-2 2-2h17.2c1.1 0 2 0.9 2 2v6.8c0 1.1-0.9 2-2 2h-17.2c-1.1 0-2-0.9-2-2zm4 4.7h13.2v-2.7h-13.2z"/>
				</g>
				<g id="&lt;Group&gt;">
					<path id="&lt;Path&gt;" class="s2" d="m123.5 139.5c-22 0-39.9-17.9-39.9-39.9 0-19.9 15-37 34.5-39.6v-3h4v4.8c0 1-0.7 1.9-1.8 2-18.4 1.6-32.7 17.3-32.7 35.8 0 19.8 16.1 35.9 35.9 35.9 19.8 0 36-16.1 36-35.9 0-18.5-14.4-34.2-32.8-35.8-1-0.1-1.8-1-1.8-2v-6.7h4v4.9c19.8 2.6 34.6 19.3 34.6 39.6 0 22-18 39.9-40 39.9z"/>
				</g>
				<g id="&lt;Group&gt;">
					<g id="&lt;Group&gt;">
						<path id="&lt;Path&gt;" class="s2" d="m149.7 72l-3.1-2.6 4.4-5.2 3.1 2.6z"/>
					</g>
					<g id="&lt;Group&gt;">
						<path id="&lt;Path&gt;" class="s2" d="m154.8 70.1l-7.1-6.1 2.6-3 7.1 6z"/>
					</g>
				</g>
				<g id="&lt;Group&gt;">
					<path id="&lt;Path&gt;" class="s2" d="m123.5 131.6v-4c15.4 0 28-12.6 28-28h4c0 17.6-14.3 32-32 32z"/>
				</g>
				<g id="&lt;Group&gt;">
					<path id="&lt;Path&gt;" class="s2" d="m128.3 95.7l-3.4-2.1 10.3-16.6 3.4 2.1z"/>
				</g>
				<g id="&lt;Group&gt;">
					<path id="&lt;Compound Path&gt;" fill-rule="evenodd" class="s2" d="m123.5 107.4c-4.3 0-7.8-3.5-7.8-7.8 0-4.4 3.5-7.9 7.8-7.9 4.3 0 7.8 3.5 7.8 7.9 0 4.3-3.5 7.8-7.8 7.8zm3.8-7.8c0-2.2-1.7-3.9-3.8-3.9-2.1 0-3.8 1.7-3.8 3.9 0 2.1 1.7 3.8 3.8 3.8 2.1 0 3.8-1.7 3.8-3.8z"/>
				</g>
			</g>
		</g>
	</g>
</svg>